<?xml version="1.0" encoding="UTF-8" standalone="no"?>
<!-- Created with Inkscape (http://www.inkscape.org/) -->

<svg
   xmlns:dc="http://purl.org/dc/elements/1.1/"
   xmlns:cc="http://creativecommons.org/ns#"
   xmlns:rdf="http://www.w3.org/1999/02/22-rdf-syntax-ns#"
   xmlns:svg="http://www.w3.org/2000/svg"
   xmlns="http://www.w3.org/2000/svg"
   xmlns:sodipodi="http://sodipodi.sourceforge.net/DTD/sodipodi-0.dtd"
   xmlns:inkscape="http://www.inkscape.org/namespaces/inkscape"
   width="820"
   height="460"
   id="svg2"
   sodipodi:version="0.32"
   inkscape:version="0.48.1 r9760"
   version="1.0"
   sodipodi:docname="contract_sos_left.svg"
   inkscape:output_extension="org.inkscape.output.svg.inkscape">
  <defs
     id="defs4">
    <marker
       inkscape:stockid="Arrow1Mend"
       orient="auto"
       refY="0"
       refX="0"
       id="Arrow1Mend"
       style="overflow:visible">
      <path
         id="path3842"
         d="M 0,0 5,-5 -12.5,0 5,5 0,0 z"
         style="fill-rule:evenodd;stroke:#000000;stroke-width:1pt;marker-start:none"
         transform="matrix(-0.4,0,0,-0.4,-4,0)"
         inkscape:connector-curvature="0" />
    </marker>
    <inkscape:perspective
       sodipodi:type="inkscape:persp3d"
       inkscape:vp_x="0 : 526.18109 : 1"
       inkscape:vp_y="0 : 1000 : 0"
       inkscape:vp_z="744.09448 : 526.18109 : 1"
       inkscape:persp3d-origin="372.04724 : 350.78739 : 1"
       id="perspective10" />
  </defs>
  <sodipodi:namedview
     id="base"
     pagecolor="#ffffff"
     bordercolor="#666666"
     borderopacity="1.0"
     gridtolerance="10000"
     guidetolerance="10"
     objecttolerance="10"
     inkscape:pageopacity="0.0"
     inkscape:pageshadow="2"
     inkscape:document-units="px"
     inkscape:current-layer="layer1"
     showgrid="true"
     units="px"
     showguides="true"
     inkscape:guide-bbox="true"
     fit-margin-top="0"
     fit-margin-left="0"
     fit-margin-right="0"
     fit-margin-bottom="0">
    <inkscape:grid
       type="xygrid"
       id="grid2383"
       visible="true"
       enabled="true"
       empcolor="#0000ff"
       empopacity="0.1254902"
       color="#0000ff"
       opacity="0.0627451"
       empspacing="5"
       snapvisiblegridlinesonly="true" />
  </sodipodi:namedview>
  <metadata
     id="metadata7">
    <rdf:RDF>
      <cc:Work
         rdf:about="">
        <dc:format>image/svg+xml</dc:format>
        <dc:type
           rdf:resource="http://purl.org/dc/dcmitype/StillImage" />
        <dc:title></dc:title>
      </cc:Work>
    </rdf:RDF>
  </metadata>
  <g
     inkscape:label="Layer 1"
     inkscape:groupmode="layer"
     id="layer1"
     transform="translate(20.5,39.50001)">
    <path
       style="fill:#a0a0a0;fill-opacity:1;stroke:#000000;stroke-width:1px;stroke-linecap:butt;stroke-linejoin:miter;stroke-opacity:1"
       d="m 0,-20 760,0 0,100 10,0 c 0,0 5,0 5,10 0,10 -5,10 -5,10 l -10,0 0,80 10,0 c 0,0 5,0 5,10 0,10 -5,10 -5,10 l -10,0 0,80 10,0 c 0,0 5,0 5,10 0,10 -5,10 -5,10 l -10,0 0,100 -760,0 z"
       id="path3142"
       inkscape:connector-curvature="0"
       sodipodi:nodetypes="ccccscccczccccsccccc" />
    <path
       sodipodi:nodetypes="ccccscccczccccsccccc"
       inkscape:connector-curvature="0"
       id="path3112"
       d="m 20,0 580,0 0,80 10,0 c 0,0 5,0 5,10 0,10 -5,10 -5,10 l -10,0 0,80 10,0 c 0,0 5,0 5,10 0,10 -5,10 -5,10 l -10,0 0,80 10,0 c 0,0 5,0 5,10 0,10 -5,10 -5,10 l -10,0 0,80 -580,0 z"
       style="fill:#b4b4b4;fill-opacity:1;stroke:#000000;stroke-width:1px;stroke-linecap:butt;stroke-linejoin:miter;stroke-opacity:1" />
    <path
       style="fill:#c8c8c8;fill-opacity:1;stroke:#000000;stroke-width:1px;stroke-linecap:butt;stroke-linejoin:miter;stroke-opacity:1"
       d="m 40,20 400,0 0,60 10,0 c 0,0 5,0 5,10 0,10 -5,10 -5,10 l -10,0 0,30 10,0 c 0,0 5,0 5,10 0,10 -5,10 -5,10 l -10,0 0,30 10,0 c 0,0 5,0 5,10 0,10 -5,10 -5,10 l -10,0 0,80 10,0 c 0,0 5,0 5,10 0,10 -5,10 -5,10 l -10,0 0,60 -400,0 z"
       id="path3110"
       inkscape:connector-curvature="0"
       sodipodi:nodetypes="ccccscccczcccczccccsccccc" />
    <path
       sodipodi:nodetypes="ccccscccczcccczcccczccsccccccc"
       inkscape:connector-curvature="0"
       id="path3108"
       d="m 60,40 220,0 0,40 10,0 c 0,0 5,0 5,10 0,10 -5,10 -5,10 l -10,0 0,30 10,0 c 0,0 5,0 5,10 0,10 -5,10 -5,10 l -10,0 0,30 10,0 c 0,0 5,0 5,10 0,10 -5,10 -5,10 l -10,0 0,30 10,0 c 0,0 5,0 5,10 0,10 -5,10 -5,10 l -10,0 0,30 10,0 c 0,0 5,0 5,10 0,10 -5,10 -5,10 l -10,0 0,40 -220,0 z"
       style="fill:#dedede;fill-opacity:1;stroke:#000000;stroke-width:1px;stroke-linecap:butt;stroke-linejoin:miter;stroke-opacity:1" />
    <path
       style="fill:none;stroke:#000000;stroke-width:1px;stroke-linecap:butt;stroke-linejoin:miter;stroke-opacity:1"
       d="m 135,190 30,0"
       id="path2389"
       sodipodi:nodetypes="cc"
       inkscape:connector-curvature="0" />
    <path
       style="fill:none;stroke:#000000;stroke-width:1px;stroke-linecap:butt;stroke-linejoin:miter;stroke-opacity:1;marker-end:url(#Arrow1Mend)"
       d="m 135,90 140,0"
       id="path3180"
       sodipodi:nodetypes="cc"
       inkscape:connector-curvature="0" />
    <path
       style="fill:none;stroke:#000000;stroke-width:1px;stroke-linecap:butt;stroke-linejoin:miter;stroke-opacity:1;marker-end:url(#Arrow1Mend)"
       d="m 235,190 40,0"
       id="path3186"
       inkscape:connector-curvature="0"
       sodipodi:nodetypes="cc" />
    <path
       style="fill:none;stroke:#000000;stroke-width:1px;stroke-linecap:butt;stroke-linejoin:miter;stroke-opacity:1"
       d="m 295,290 30,0"
       id="path3190"
       inkscape:connector-curvature="0"
       sodipodi:nodetypes="cc" />
    <path
       style="fill:#ffffff;fill-opacity:1;stroke:#000000;stroke-width:1px;stroke-linecap:butt;stroke-linejoin:miter;stroke-opacity:1"
       d="m 80,60 40,0 0,20 10,0 c 0,0 5,0 5,10 0,10 -5,10 -5,10 l -10,0 0,80 10,0 c 0,0 5,0 5,10 0,10 -5,10 -5,10 l -10,0 0,80 10,0 c 0,0 5,0 5,10 0,10 -5,10 -5,10 l -10,0 0,20 -40,0 z"
       id="path3922"
       inkscape:connector-curvature="0"
       sodipodi:nodetypes="ccccscccczccccsccccc" />
    <path
       style="fill:none;stroke:#000000;stroke-width:1px;stroke-linecap:butt;stroke-linejoin:miter;stroke-opacity:1;marker-end:url(#Arrow1Mend)"
       d="m 395,290 40,0"
       id="path3192"
       inkscape:connector-curvature="0"
       sodipodi:nodetypes="cc" />
    <g
       id="g4550"
       transform="translate(20,-20)">
      <path
         inkscape:connector-curvature="0"
         id="path3968"
         d="m 160,200 10,-10 0,-10 c 0,0 0,-5 10,-5 10,0 10,5 10,5 l 0,10 10,10 10,0 c 0,0 5,0 5,10 0,10 -5,10 -5,10 l -10,0 -10,10 0,10 c 0,0 0,5 -10,5 -10,0 -10,-5 -10,-5 l 0,-10 -10,-10 -10,0 c 0,0 -5,0 -5,-10 0,-10 5,-10 5,-10 z"
         style="fill:#ffffff;fill-opacity:1;stroke:#000000;stroke-width:1px;stroke-linecap:butt;stroke-linejoin:miter;stroke-opacity:1" />
      <text
         sodipodi:linespacing="100%"
         id="text3198"
         y="219.92432"
         x="180.11719"
         style="font-size:30px;font-style:normal;font-variant:normal;font-weight:normal;font-stretch:normal;text-align:center;line-height:100%;writing-mode:lr-tb;text-anchor:middle;fill:#000000;fill-opacity:1;fill-rule:nonzero;stroke:none;stroke-width:1px;marker:none;visibility:visible;display:inline;overflow:visible;enable-background:accumulate;font-family:Bitstream Vera Serif;-inkscape-font-specification:Bitstream Vera Serif"
         xml:space="preserve"><tspan
           y="219.92432"
           x="180.11719"
           id="tspan3200"
           sodipodi:role="line">O</tspan></text>
      <text
         xml:space="preserve"
         style="font-size:12px;font-style:normal;font-variant:normal;font-weight:normal;font-stretch:normal;text-align:center;line-height:125%;writing-mode:lr-tb;text-anchor:middle;fill:#000000;fill-opacity:1;stroke:none;font-family:Bitstream Vera Sans;-inkscape-font-specification:Bitstream Vera Sans"
         x="155.04688"
         y="214.37402"
         id="text3782"
         sodipodi:linespacing="125%"><tspan
           sodipodi:role="line"
           id="tspan3784"
           x="155.04688"
           y="214.37402">0</tspan></text>
      <text
         sodipodi:linespacing="125%"
         id="text3786"
         y="214.36816"
         x="205.02637"
         style="font-size:12px;font-style:normal;font-variant:normal;font-weight:normal;font-stretch:normal;text-align:center;line-height:125%;writing-mode:lr-tb;text-anchor:middle;fill:#000000;fill-opacity:1;stroke:none;font-family:Bitstream Vera Sans;-inkscape-font-specification:Bitstream Vera Sans"
         xml:space="preserve"><tspan
           id="tspan3790"
           y="214.36816"
           x="205.02637"
           sodipodi:role="line">1</tspan></text>
      <text
         xml:space="preserve"
         style="font-size:12px;font-style:normal;font-variant:normal;font-weight:normal;font-stretch:normal;text-align:center;line-height:125%;writing-mode:lr-tb;text-anchor:middle;fill:#000000;fill-opacity:1;stroke:none;font-family:Bitstream Vera Sans;-inkscape-font-specification:Bitstream Vera Sans"
         x="180.16406"
         y="189.45312"
         id="text3794"
         sodipodi:linespacing="125%"><tspan
           sodipodi:role="line"
           id="tspan3796"
           x="180.16406"
           y="189.45312">2</tspan></text>
      <text
         sodipodi:linespacing="125%"
         id="text3798"
         y="239.37402"
         x="179.89746"
         style="font-size:12px;font-style:normal;font-variant:normal;font-weight:normal;font-stretch:normal;text-align:center;line-height:125%;writing-mode:lr-tb;text-anchor:middle;fill:#000000;fill-opacity:1;stroke:none;font-family:Bitstream Vera Sans;-inkscape-font-specification:Bitstream Vera Sans"
         xml:space="preserve"><tspan
           y="239.37402"
           x="179.89746"
           id="tspan3800"
           sodipodi:role="line">3</tspan></text>
    </g>
    <text
       xml:space="preserve"
       style="font-size:14px;font-style:normal;font-variant:normal;font-weight:normal;font-stretch:normal;fill:#000000;fill-opacity:1;stroke:none;font-family:Bitstream Vera Serif;-inkscape-font-specification:Bitstream Vera Serif"
       x="199.80714"
       y="135.94919"
       id="text3291"><tspan
         sodipodi:role="line"
         id="tspan3293"
         x="199.80714"
         y="135.94919" /></text>
    <text
       xml:space="preserve"
       style="font-size:30px;font-style:normal;font-variant:normal;font-weight:normal;font-stretch:normal;text-align:center;line-height:100%;writing-mode:lr-tb;text-anchor:middle;fill:#000000;fill-opacity:1;fill-rule:nonzero;stroke:none;stroke-width:1px;marker:none;visibility:visible;display:inline;overflow:visible;enable-background:accumulate;font-family:Bitstream Vera Serif;-inkscape-font-specification:Bitstream Vera Serif"
       x="100.0293"
       y="200"
       id="text2391"
       sodipodi:linespacing="100%"><tspan
         sodipodi:role="line"
         id="tspan2393"
         x="100.0293"
         y="200">L</tspan></text>
    <text
       xml:space="preserve"
       style="font-size:12px;font-style:normal;font-variant:normal;font-weight:normal;font-stretch:normal;text-align:center;line-height:125%;writing-mode:lr-tb;text-anchor:middle;fill:#000000;fill-opacity:1;stroke:none;font-family:Bitstream Vera Sans;-inkscape-font-specification:Bitstream Vera Sans"
       x="125.02637"
       y="194.36816"
       id="text3710"
       sodipodi:linespacing="125%"><tspan
         sodipodi:role="line"
         id="tspan3712"
         x="125.02637"
         y="194.36816">0</tspan></text>
    <text
       sodipodi:linespacing="125%"
       id="text3714"
       y="294.37402"
       x="124.89747"
       style="font-size:12px;font-style:normal;font-variant:normal;font-weight:normal;font-stretch:normal;text-align:center;line-height:125%;writing-mode:lr-tb;text-anchor:middle;fill:#000000;fill-opacity:1;stroke:none;font-family:Bitstream Vera Sans;-inkscape-font-specification:Bitstream Vera Sans"
       xml:space="preserve"><tspan
         y="294.37402"
         x="124.89747"
         id="tspan3716"
         sodipodi:role="line">2</tspan></text>
    <text
       xml:space="preserve"
       style="font-size:12px;font-style:normal;font-variant:normal;font-weight:normal;font-stretch:normal;text-align:center;line-height:125%;writing-mode:lr-tb;text-anchor:middle;fill:#000000;fill-opacity:1;stroke:none;font-family:Bitstream Vera Sans;-inkscape-font-specification:Bitstream Vera Sans"
       x="125.16407"
       y="94.453117"
       id="text3718"
       sodipodi:linespacing="125%"><tspan
         sodipodi:role="line"
         id="tspan3720"
         x="125.16407"
         y="94.453117">1</tspan></text>
    <g
       id="g3078"
       transform="translate(180,-20)">
      <path
         sodipodi:nodetypes="cccsccccscczccscc"
         inkscape:connector-curvature="0"
         id="path4049"
         d="m 160,300 c 3,-5 5,-7 10,-10 l 0,-10 c 0,0 0,-5 10,-5 10,0 10,5 10,5 l 0,10 c 5,3 8,6 10,10 l 10,0 c 0,0 5,0 5,10 0,10 -5,10 -5,10 l -10,0 c 0,0 -5,12 -20,12 -15,0 -20,-12 -20,-12 l -10,0 c 0,0 -5,0 -5,-10 0,-10 5,-10 5,-10 z"
         style="fill:#ffffff;fill-opacity:1;stroke:#000000;stroke-width:1px;stroke-linecap:butt;stroke-linejoin:miter;stroke-opacity:1" />
      <text
         sodipodi:linespacing="100%"
         id="text4029"
         y="319.92432"
         x="180.11719"
         style="font-size:30px;font-style:normal;font-variant:normal;font-weight:normal;font-stretch:normal;text-align:center;line-height:100%;writing-mode:lr-tb;text-anchor:middle;fill:#000000;fill-opacity:1;fill-rule:nonzero;stroke:none;stroke-width:1px;marker:none;visibility:visible;display:inline;overflow:visible;enable-background:accumulate;font-family:Bitstream Vera Serif;-inkscape-font-specification:Bitstream Vera Serif"
         xml:space="preserve"><tspan
           y="319.92432"
           x="180.11719"
           id="tspan4031"
           sodipodi:role="line">S</tspan></text>
      <text
         xml:space="preserve"
         style="font-size:12px;font-style:normal;font-variant:normal;font-weight:normal;font-stretch:normal;text-align:center;line-height:125%;writing-mode:lr-tb;text-anchor:middle;fill:#000000;fill-opacity:1;stroke:none;font-family:Bitstream Vera Sans;-inkscape-font-specification:Bitstream Vera Sans"
         x="155.04688"
         y="314.37402"
         id="text4033"
         sodipodi:linespacing="125%"><tspan
           sodipodi:role="line"
           id="tspan4035"
           x="155.04688"
           y="314.37402">1</tspan></text>
      <text
         sodipodi:linespacing="125%"
         id="text4037"
         y="314.36816"
         x="205.02637"
         style="font-size:12px;font-style:normal;font-variant:normal;font-weight:normal;font-stretch:normal;text-align:center;line-height:125%;writing-mode:lr-tb;text-anchor:middle;fill:#000000;fill-opacity:1;stroke:none;font-family:Bitstream Vera Sans;-inkscape-font-specification:Bitstream Vera Sans"
         xml:space="preserve"><tspan
           id="tspan4039"
           y="314.36816"
           x="205.02637"
           sodipodi:role="line">2</tspan></text>
      <text
         xml:space="preserve"
         style="font-size:12px;font-style:normal;font-variant:normal;font-weight:normal;font-stretch:normal;text-align:center;line-height:125%;writing-mode:lr-tb;text-anchor:middle;fill:#000000;fill-opacity:1;stroke:none;font-family:Bitstream Vera Sans;-inkscape-font-specification:Bitstream Vera Sans"
         x="180.16406"
         y="289.45312"
         id="text4041"
         sodipodi:linespacing="125%"><tspan
           sodipodi:role="line"
           id="tspan4043"
           x="180.16406"
           y="289.45312">0</tspan></text>
    </g>
    <path
       inkscape:connector-curvature="0"
       sodipodi:nodetypes="cc"
       id="path3114"
       d="m 455,90 30,0"
       style="fill:none;stroke:#000000;stroke-width:1px;stroke-linecap:butt;stroke-linejoin:miter;stroke-opacity:1" />
    <path
       sodipodi:nodetypes="cc"
       inkscape:connector-curvature="0"
       id="path3116"
       d="m 555,90 40,0"
       style="fill:none;stroke:#000000;stroke-width:1px;stroke-linecap:butt;stroke-linejoin:miter;stroke-opacity:1;marker-end:url(#Arrow1Mend)" />
    <g
       id="g3118"
       transform="translate(340,-20)">
      <path
         sodipodi:nodetypes="cccsccccscczccscc"
         inkscape:connector-curvature="0"
         id="path3120"
         d="m 160,120 c 3,5 5,7 10,10 l 0,10 c 0,0 0,5 10,5 10,0 10,-5 10,-5 l 0,-10 c 5,-3 8,-6 10,-10 l 10,0 c 0,0 5,0 5,-10 0,-10 -5,-10 -5,-10 l -10,0 c 0,0 -5,-12 -20,-12 -15,0 -20,12 -20,12 l -10,0 c 0,0 -5,0 -5,10 0,10 5,10 5,10 z"
         style="fill:#ffffff;fill-opacity:1;stroke:#000000;stroke-width:1px;stroke-linecap:butt;stroke-linejoin:miter;stroke-opacity:1" />
      <text
         sodipodi:linespacing="100%"
         id="text3122"
         y="119.95361"
         x="176.11719"
         style="font-size:30px;font-style:normal;font-variant:normal;font-weight:normal;font-stretch:normal;text-align:center;line-height:100%;writing-mode:lr-tb;text-anchor:middle;fill:#000000;fill-opacity:1;fill-rule:nonzero;stroke:none;stroke-width:1px;marker:none;visibility:visible;display:inline;overflow:visible;enable-background:accumulate;font-family:Bitstream Vera Serif;-inkscape-font-specification:Bitstream Vera Serif"
         xml:space="preserve"><tspan
           y="119.95361"
           x="176.11719"
           id="tspan3124"
           sodipodi:role="line">S</tspan></text>
      <text
         xml:space="preserve"
         style="font-size:12px;font-style:normal;font-variant:normal;font-weight:normal;font-stretch:normal;text-align:center;line-height:125%;writing-mode:lr-tb;text-anchor:middle;fill:#000000;fill-opacity:1;stroke:none;font-family:Bitstream Vera Sans;-inkscape-font-specification:Bitstream Vera Sans"
         x="155.04688"
         y="114.37402"
         id="text3126"
         sodipodi:linespacing="125%"><tspan
           sodipodi:role="line"
           id="tspan3128"
           x="155.04688"
           y="114.37402">1</tspan></text>
      <text
         sodipodi:linespacing="125%"
         id="text3130"
         y="114.53809"
         x="205.02637"
         style="font-size:12px;font-style:normal;font-variant:normal;font-weight:normal;font-stretch:normal;text-align:center;line-height:125%;writing-mode:lr-tb;text-anchor:middle;fill:#000000;fill-opacity:1;stroke:none;font-family:Bitstream Vera Sans;-inkscape-font-specification:Bitstream Vera Sans"
         xml:space="preserve"><tspan
           id="tspan3132"
           y="114.53809"
           x="205.02637"
           sodipodi:role="line">2</tspan></text>
      <text
         xml:space="preserve"
         style="font-size:12px;font-style:normal;font-variant:normal;font-weight:normal;font-stretch:normal;text-align:center;line-height:125%;writing-mode:lr-tb;text-anchor:middle;fill:#000000;fill-opacity:1;stroke:none;font-family:Bitstream Vera Sans;-inkscape-font-specification:Bitstream Vera Sans"
         x="180.16406"
         y="139.45312"
         id="text3134"
         sodipodi:linespacing="125%"><tspan
           sodipodi:role="line"
           id="tspan3136"
           x="180.16406"
           y="139.45312">0</tspan></text>
      <text
         xml:space="preserve"
         style="font-size:20px;font-style:normal;font-variant:normal;font-weight:normal;font-stretch:normal;text-align:start;line-height:125%;letter-spacing:0px;word-spacing:0px;writing-mode:lr-tb;text-anchor:start;fill:#000000;fill-opacity:1;stroke:none;font-family:Bitstream Vera Serif;-inkscape-font-specification:Bitstream Vera Serif"
         x="184"
         y="111.75762"
         id="text3138"
         sodipodi:linespacing="125%"><tspan
           sodipodi:role="line"
           id="tspan3140"
           x="184"
           y="111.75762">*</tspan></text>
    </g>
    <text
       sodipodi:linespacing="125%"
       id="text3918"
       y="194.36816"
       x="285.30176"
       style="font-size:12px;font-style:normal;font-variant:normal;font-weight:normal;font-stretch:normal;text-align:center;line-height:125%;writing-mode:lr-tb;text-anchor:middle;fill:#000000;fill-opacity:1;stroke:none;font-family:Bitstream Vera Sans;-inkscape-font-specification:Bitstream Vera Sans"
       xml:space="preserve"><tspan
         y="194.36816"
         x="285.30176"
         id="tspan3920"
         sodipodi:role="line">2</tspan></text>
    <text
       xml:space="preserve"
       style="font-size:12px;font-style:normal;font-variant:normal;font-weight:normal;font-stretch:normal;text-align:center;line-height:125%;writing-mode:lr-tb;text-anchor:middle;fill:#000000;fill-opacity:1;stroke:none;font-family:Bitstream Vera Sans;-inkscape-font-specification:Bitstream Vera Sans"
       x="285.14355"
       y="294.37402"
       id="text3922"
       sodipodi:linespacing="125%"><tspan
         sodipodi:role="line"
         id="tspan3924"
         x="285.14355"
         y="294.37402">4</tspan></text>
    <text
       sodipodi:linespacing="125%"
       id="text3926"
       y="94.453117"
       x="285.16406"
       style="font-size:12px;font-style:normal;font-variant:normal;font-weight:normal;font-stretch:normal;text-align:center;line-height:125%;writing-mode:lr-tb;text-anchor:middle;fill:#000000;fill-opacity:1;stroke:none;font-family:Bitstream Vera Sans;-inkscape-font-specification:Bitstream Vera Sans"
       xml:space="preserve"><tspan
         y="94.453117"
         x="285.16406"
         id="tspan3928"
         sodipodi:role="line">1</tspan></text>
    <text
       xml:space="preserve"
       style="font-size:12px;font-style:normal;font-variant:normal;font-weight:normal;font-stretch:normal;text-align:center;line-height:125%;writing-mode:lr-tb;text-anchor:middle;fill:#000000;fill-opacity:1;stroke:none;font-family:Bitstream Vera Sans;-inkscape-font-specification:Bitstream Vera Sans"
       x="445.02637"
       y="194.36816"
       id="text3930"
       sodipodi:linespacing="125%"><tspan
         sodipodi:role="line"
         id="tspan3932"
         x="445.02637"
         y="194.36816">2</tspan></text>
    <text
       sodipodi:linespacing="125%"
       id="text3934"
       y="294.37402"
       x="444.89746"
       style="font-size:12px;font-style:normal;font-variant:normal;font-weight:normal;font-stretch:normal;text-align:center;line-height:125%;writing-mode:lr-tb;text-anchor:middle;fill:#000000;fill-opacity:1;stroke:none;font-family:Bitstream Vera Sans;-inkscape-font-specification:Bitstream Vera Sans"
       xml:space="preserve"><tspan
         y="294.37402"
         x="444.89746"
         id="tspan3936"
         sodipodi:role="line">3</tspan></text>
    <text
       xml:space="preserve"
       style="font-size:12px;font-style:normal;font-variant:normal;font-weight:normal;font-stretch:normal;text-align:center;line-height:125%;writing-mode:lr-tb;text-anchor:middle;fill:#000000;fill-opacity:1;stroke:none;font-family:Bitstream Vera Sans;-inkscape-font-specification:Bitstream Vera Sans"
       x="445.16406"
       y="94.453117"
       id="text3938"
       sodipodi:linespacing="125%"><tspan
         sodipodi:role="line"
         id="tspan3940"
         x="445.16406"
         y="94.453117">1</tspan></text>
    <text
       sodipodi:linespacing="125%"
       id="text3942"
       y="194.36816"
       x="605.02637"
       style="font-size:12px;font-style:normal;font-variant:normal;font-weight:normal;font-stretch:normal;text-align:center;line-height:125%;writing-mode:lr-tb;text-anchor:middle;fill:#000000;fill-opacity:1;stroke:none;font-family:Bitstream Vera Sans;-inkscape-font-specification:Bitstream Vera Sans"
       xml:space="preserve"><tspan
         y="194.36816"
         x="605.02637"
         id="tspan3944"
         sodipodi:role="line">1</tspan></text>
    <text
       xml:space="preserve"
       style="font-size:12px;font-style:normal;font-variant:normal;font-weight:normal;font-stretch:normal;text-align:center;line-height:125%;writing-mode:lr-tb;text-anchor:middle;fill:#000000;fill-opacity:1;stroke:none;font-family:Bitstream Vera Sans;-inkscape-font-specification:Bitstream Vera Sans"
       x="604.89746"
       y="294.37402"
       id="text3946"
       sodipodi:linespacing="125%"><tspan
         sodipodi:role="line"
         id="tspan3948"
         x="604.89746"
         y="294.37402">2</tspan></text>
    <text
       sodipodi:linespacing="125%"
       id="text3950"
       y="94.453117"
       x="605.16406"
       style="font-size:12px;font-style:normal;font-variant:normal;font-weight:normal;font-stretch:normal;text-align:center;line-height:125%;writing-mode:lr-tb;text-anchor:middle;fill:#000000;fill-opacity:1;stroke:none;font-family:Bitstream Vera Sans;-inkscape-font-specification:Bitstream Vera Sans"
       xml:space="preserve"><tspan
         y="94.453117"
         x="605.16406"
         id="tspan3952"
         sodipodi:role="line">0</tspan></text>
    <text
       xml:space="preserve"
       style="font-size:12px;font-style:normal;font-variant:normal;font-weight:normal;font-stretch:normal;text-align:center;line-height:125%;writing-mode:lr-tb;text-anchor:middle;fill:#000000;fill-opacity:1;stroke:none;font-family:Bitstream Vera Sans;-inkscape-font-specification:Bitstream Vera Sans"
       x="765.02637"
       y="194.36816"
       id="text3954"
       sodipodi:linespacing="125%"><tspan
         sodipodi:role="line"
         id="tspan3956"
         x="765.02637"
         y="194.36816">0</tspan></text>
    <text
       sodipodi:linespacing="125%"
       id="text3958"
       y="294.37402"
       x="764.89746"
       style="font-size:12px;font-style:normal;font-variant:normal;font-weight:normal;font-stretch:normal;text-align:center;line-height:125%;writing-mode:lr-tb;text-anchor:middle;fill:#000000;fill-opacity:1;stroke:none;font-family:Bitstream Vera Sans;-inkscape-font-specification:Bitstream Vera Sans"
       xml:space="preserve"><tspan
         y="294.37402"
         x="764.89746"
         id="tspan3960"
         sodipodi:role="line">2</tspan></text>
    <text
       xml:space="preserve"
       style="font-size:12px;font-style:normal;font-variant:normal;font-weight:normal;font-stretch:normal;text-align:center;line-height:125%;writing-mode:lr-tb;text-anchor:middle;fill:#000000;fill-opacity:1;stroke:none;font-family:Bitstream Vera Sans;-inkscape-font-specification:Bitstream Vera Sans"
       x="765.16406"
       y="94.453117"
       id="text3962"
       sodipodi:linespacing="125%"><tspan
         sodipodi:role="line"
         id="tspan3964"
         x="765.16406"
         y="94.453117">1</tspan></text>
    <text
       xml:space="preserve"
       style="font-size:12px;font-style:normal;font-variant:normal;font-weight:normal;font-stretch:normal;text-align:center;line-height:125%;writing-mode:lr-tb;text-anchor:middle;fill:#000000;fill-opacity:1;stroke:none;font-family:Bitstream Vera Sans;-inkscape-font-specification:Bitstream Vera Sans"
       x="285.18457"
       y="144.45312"
       id="text3968"
       sodipodi:linespacing="125%"><tspan
         sodipodi:role="line"
         id="tspan3970"
         x="285.18457"
         y="144.45312">0</tspan></text>
    <text
       sodipodi:linespacing="125%"
       id="text3972"
       y="244.45312"
       x="285.03516"
       style="font-size:12px;font-style:normal;font-variant:normal;font-weight:normal;font-stretch:normal;text-align:center;line-height:125%;writing-mode:lr-tb;text-anchor:middle;fill:#000000;fill-opacity:1;stroke:none;font-family:Bitstream Vera Sans;-inkscape-font-specification:Bitstream Vera Sans"
       xml:space="preserve"><tspan
         y="244.45312"
         x="285.03516"
         id="tspan3974"
         sodipodi:role="line">3</tspan></text>
    <path
       id="path4163"
       style="fill:none;stroke:#000000;stroke-width:1px;stroke-linecap:butt;stroke-linejoin:miter;stroke-opacity:1;marker-end:url(#Arrow1Mend)"
       d="m 200,155 0,-15 35,0 m 0,0 40,0"
       inkscape:connector-curvature="0" />
    <path
       d="m 200,225 0,15 35,0 m 0,0 40,0"
       style="fill:none;stroke:#000000;stroke-width:1px;stroke-linecap:butt;stroke-linejoin:miter;stroke-opacity:1;marker-end:url(#Arrow1Mend)"
       id="path4349"
       inkscape:connector-curvature="0"
       sodipodi:nodetypes="ccccc" />
    <path
       inkscape:connector-curvature="0"
       sodipodi:nodetypes="cc"
       id="path4351"
       d="m 135,290 140,0"
       style="fill:none;stroke:#000000;stroke-width:1px;stroke-linecap:butt;stroke-linejoin:miter;stroke-opacity:1;marker-end:url(#Arrow1Mend)" />
    <text
       xml:space="preserve"
       style="font-size:40px;font-style:normal;font-weight:normal;line-height:125%;letter-spacing:0px;word-spacing:0px;fill:#000000;fill-opacity:1;stroke:none;font-family:Bitstream Vera Sans"
       x="125"
       y="92.857147"
       id="text4535"
       sodipodi:linespacing="125%"><tspan
         sodipodi:role="line"
         id="tspan4537"
         x="125"
         y="92.857147"></tspan></text>
    <path
       inkscape:connector-curvature="0"
       sodipodi:nodetypes="cc"
       id="path4563"
       d="m 295,90 140,0"
       style="fill:none;stroke:#000000;stroke-width:1px;stroke-linecap:butt;stroke-linejoin:miter;stroke-opacity:1;marker-end:url(#Arrow1Mend)" />
    <path
       style="fill:none;stroke:#000000;stroke-width:1px;stroke-linecap:butt;stroke-linejoin:miter;stroke-opacity:1;marker-end:url(#Arrow1Mend)"
       d="m 295,140 140,0"
       id="path4565"
       sodipodi:nodetypes="cc"
       inkscape:connector-curvature="0" />
    <path
       inkscape:connector-curvature="0"
       sodipodi:nodetypes="cc"
       id="path4567"
       d="m 295,190 140,0"
       style="fill:none;stroke:#000000;stroke-width:1px;stroke-linecap:butt;stroke-linejoin:miter;stroke-opacity:1;marker-end:url(#Arrow1Mend)" />
    <text
       sodipodi:linespacing="125%"
       id="text4569"
       y="144.45312"
       x="445.16406"
       style="font-size:12px;font-style:normal;font-variant:normal;font-weight:normal;font-stretch:normal;text-align:center;line-height:125%;writing-mode:lr-tb;text-anchor:middle;fill:#000000;fill-opacity:1;stroke:none;font-family:Bitstream Vera Sans;-inkscape-font-specification:Bitstream Vera Sans"
       xml:space="preserve"><tspan
         y="144.45312"
         x="445.16406"
         id="tspan4571"
         sodipodi:role="line">0</tspan></text>
    <path
       style="fill:none;stroke:#000000;stroke-width:1px;stroke-linecap:butt;stroke-linejoin:miter;stroke-opacity:1"
       d="m 295,240 65,0 0,15"
       id="path4573"
       inkscape:connector-curvature="0" />
    <path
       style="fill:none;stroke:#000000;stroke-width:1px;stroke-linecap:butt;stroke-linejoin:miter;stroke-opacity:1"
       d="m 455,140 65,0 0,-15"
       id="path4575"
       inkscape:connector-curvature="0" />
    <path
       style="fill:none;stroke:#000000;stroke-width:1px;stroke-linecap:butt;stroke-linejoin:miter;stroke-opacity:1;marker-end:url(#Arrow1Mend)"
       d="m 455,190 140,0"
       id="path4577"
       sodipodi:nodetypes="cc"
       inkscape:connector-curvature="0" />
    <path
       inkscape:connector-curvature="0"
       sodipodi:nodetypes="cc"
       id="path4579"
       d="m 455,290 140,0"
       style="fill:none;stroke:#000000;stroke-width:1px;stroke-linecap:butt;stroke-linejoin:miter;stroke-opacity:1;marker-end:url(#Arrow1Mend)" />
    <path
       style="fill:none;stroke:#000000;stroke-width:1px;stroke-linecap:butt;stroke-linejoin:miter;stroke-opacity:1;marker-end:url(#Arrow1Mend)"
       d="m 620,190 40,0 50,-100 40,0"
       id="path4581"
       inkscape:connector-curvature="0" />
    <path
       inkscape:connector-curvature="0"
       id="path4583"
       d="m 620,90 40,0 50,100 40,0"
       style="fill:none;stroke:#000000;stroke-width:1px;stroke-linecap:butt;stroke-linejoin:miter;stroke-opacity:1;marker-end:url(#Arrow1Mend)" />
    <path
       style="fill:none;stroke:#000000;stroke-width:1px;stroke-linecap:butt;stroke-linejoin:miter;stroke-opacity:1;marker-end:url(#Arrow1Mend)"
       d="m 615,290 140,0"
       id="path4767"
       sodipodi:nodetypes="cc"
       inkscape:connector-curvature="0" />
  </g>
</svg>
